<?xml version="1.0" encoding="utf-8"?>
<!-- Generator: Adobe Illustrator 19.0.1, SVG Export Plug-In . SVG Version: 6.00 Build 0)  -->
<svg version="1.1" id="Layer_1" xmlns="http://www.w3.org/2000/svg" xmlns:xlink="http://www.w3.org/1999/xlink" x="0px" y="0px"
	 viewBox="0 0 265.7 100.8" style="enable-background:new 0 0 265.7 100.8;" xml:space="preserve">
<style type="text/css">
	.st0{fill:#00468B;}
	.st1{fill:#AA7FB8;}
	.st2{fill:#52B9E9;}
	.st3{fill:#68C6B4;}
</style>
<g>
	<g>
		<path class="st0" d="M7.7,90.9c-0.7-0.4-1.3-0.6-2.2-0.6c-2.1,0-3.4,1.5-3.4,3.8c0,2.3,1.4,3.8,3.5,3.8c0.8,0,1.5-0.2,2.2-0.7
			l0,1.2c-0.7,0.2-1.5,0.3-2.3,0.3c-2.7,0-4.6-1.8-4.6-4.5c0-2.7,2.1-4.8,4.9-4.8c0.7,0,1.3,0.1,1.9,0.3L7.7,90.9z"/>
		<path class="st0" d="M10.8,95.5l-0.7,1.7C10,97.5,10,97.8,10,98c0,0.2,0,0.3,0.1,0.5H8.4c0.2-0.4,0.4-0.8,0.7-1.3l3.5-8.1l3.6,8.1
			c0.3,0.6,0.4,0.9,0.6,1.2h-1.7c0.1-0.2,0.1-0.4,0.1-0.5c0-0.2-0.1-0.5-0.2-0.8l-0.8-1.8H10.8z M12.5,91.5l-1.4,3.2h2.7L12.5,91.5z
			"/>
		<path class="st0" d="M19.5,97.2c0,0.7,0.1,0.9,0.3,1.3h-1.6c0.2-0.4,0.3-0.6,0.3-1.3v-6.9h-0.1c-1,0-1.5,0.1-2.4,0.5l0.5-1.2h5.9
			l-0.4,1.2c-0.6-0.3-1.1-0.5-2.3-0.5V97.2z"/>
		<path class="st0" d="M25,94.3v2.9c0,0.7,0,0.9,0.3,1.3h-1.6c0.2-0.4,0.3-0.6,0.3-1.3V91c0-0.7-0.1-0.9-0.3-1.3h1.6
			C25,90.1,25,90.3,25,91v2.7h4.2V91c0-0.7-0.1-0.9-0.3-1.3h1.6c-0.2,0.4-0.3,0.6-0.3,1.3v6.3c0,0.7,0,0.9,0.3,1.3h-1.6
			c0.2-0.4,0.3-0.6,0.3-1.3v-2.9H25z"/>
		<path class="st0" d="M36.2,98.7c-2.6,0-4.3-1.8-4.3-4.5c0-2.7,2-4.7,4.8-4.7c2.6,0,4.3,1.8,4.3,4.5C40.9,96.7,39,98.7,36.2,98.7
			 M36.4,90.3c-2,0-3.4,1.5-3.4,3.7c0,2.3,1.5,4,3.5,4c1.9,0,3.2-1.5,3.2-3.7C39.8,91.9,38.3,90.3,36.4,90.3"/>
		<path class="st0" d="M42,98.5c0.2-0.4,0.3-0.6,0.3-1.3V91c0-0.7-0.1-0.9-0.3-1.3h1.6c-0.2,0.4-0.3,0.6-0.3,1.3v6.9h1.1
			c1,0,1.6-0.1,2.5-0.6l-0.6,1.3H42z"/>
		<path class="st0" d="M48.1,98.5c0.2-0.4,0.3-0.6,0.3-1.3V91c0-0.7-0.1-0.9-0.3-1.3h1.6c-0.2,0.4-0.3,0.6-0.3,1.3v6.3
			c0,0.7,0,0.9,0.3,1.3H48.1z"/>
		<path class="st0" d="M58,90.9c-0.7-0.4-1.3-0.6-2.2-0.6c-2.1,0-3.4,1.5-3.4,3.8c0,2.3,1.4,3.8,3.5,3.8c0.8,0,1.5-0.2,2.2-0.7
			l0,1.2c-0.7,0.2-1.5,0.3-2.3,0.3c-2.7,0-4.6-1.8-4.6-4.5c0-2.7,2.1-4.8,4.9-4.8c0.7,0,1.3,0.1,1.9,0.3L58,90.9z"/>
		<path class="st0" d="M64.4,97.3c0,0.7,0.1,0.9,0.3,1.3h-1.6c0.2-0.4,0.3-0.6,0.3-1.3V91c0-0.7,0-0.9-0.3-1.3h1.7
			c1.1,0,1.8,0.2,2.4,0.6c0.6,0.4,0.9,1,0.9,1.7c0,1.1-0.8,2-2.2,2.5l0.2,0.3c1.2,1.5,2.1,2.7,2.8,3.4c0.1,0.1,0.1,0.1,0.2,0.2
			c-0.3,0.1-0.5,0.2-0.6,0.2c-0.4,0-0.9-0.5-1.9-1.6l-2.3-2.5V97.3z M67,92.1c0-0.8-0.5-1.4-1.3-1.6c-0.4-0.1-0.6-0.1-1.2-0.1h-0.1
			V94C66,94,67,93.2,67,92.1"/>
		<path class="st0" d="M74.4,93.6l-0.6,1.1c-0.5-0.3-0.9-0.4-1.7-0.4h-0.8v3.6h1.2c1,0,1.5-0.1,2.5-0.4l-0.5,1.1h-4.5
			c0.2-0.4,0.3-0.6,0.3-1.3V91c0-0.7,0-0.9-0.3-1.3h4.9l-0.6,1.1c-0.4-0.3-0.9-0.3-1.8-0.3h-1.2v3.2H74.4z"/>
		<path class="st0" d="M76.2,98.5c0.2-0.4,0.3-0.6,0.3-1.3V91c0-0.7-0.1-0.9-0.3-1.3h1.6c-0.2,0.4-0.3,0.6-0.3,1.3v6.9h1.1
			c1,0,1.6-0.1,2.5-0.6l-0.6,1.3H76.2z"/>
		<path class="st0" d="M82.3,98.5c0.2-0.4,0.3-0.6,0.3-1.3V91c0-0.7-0.1-0.9-0.3-1.3h1.6c-0.2,0.4-0.3,0.6-0.3,1.3v6.3
			c0,0.7,0,0.9,0.3,1.3H82.3z"/>
		<path class="st0" d="M90,93.6l-0.6,1.1c-0.5-0.3-0.9-0.4-1.7-0.4h-0.8v3.6H88c1,0,1.5-0.1,2.5-0.4L90,98.5h-4.5
			c0.2-0.4,0.3-0.6,0.3-1.3V91c0-0.7,0-0.9-0.3-1.3h4.9l-0.6,1.1c-0.4-0.3-0.9-0.3-1.8-0.3h-1.2v3.2H90z"/>
		<path class="st0" d="M93.2,97.2c0,0.7,0,0.9,0.3,1.3h-1.6c0.2-0.4,0.3-0.6,0.3-1.3V91c0-0.7-0.1-0.9-0.3-1.3h4.9l-0.6,1.1
			c-0.4-0.3-0.9-0.4-1.5-0.4h-1.4v3.3h3.1l-0.6,1.1c-0.3-0.2-0.7-0.3-1.4-0.3h-1.1V97.2z"/>
		<path class="st0" d="M105.4,90.8c-0.6-0.4-1.1-0.6-1.7-0.6c-0.9,0-1.4,0.5-1.4,1.3c0,0.4,0.1,0.7,0.3,1c0.3,0.3,0.5,0.5,1.3,1
			c0.8,0.5,1,0.7,1.3,0.9c0.4,0.4,0.6,1,0.6,1.6c0,1.5-1.3,2.6-2.9,2.6c-0.6,0-1.1-0.1-1.7-0.3v-1.3c0.7,0.6,1.2,0.9,1.9,0.9
			c0.9,0,1.7-0.7,1.7-1.7c0-0.8-0.2-1-1.5-1.9c-0.7-0.5-1.1-0.7-1.4-1.1c-0.4-0.4-0.6-0.9-0.6-1.5c0-1.4,1.2-2.3,2.8-2.3
			c0.5,0,0.9,0.1,1.4,0.2V90.8z"/>
		<path class="st0" d="M111.6,93.6l-0.6,1.1c-0.5-0.3-0.9-0.4-1.7-0.4h-0.8v3.6h1.2c1,0,1.5-0.1,2.5-0.4l-0.5,1.1h-4.5
			c0.2-0.4,0.3-0.6,0.3-1.3V91c0-0.7,0-0.9-0.3-1.3h4.9l-0.6,1.1c-0.4-0.3-0.9-0.3-1.8-0.3h-1.2v3.2H111.6z"/>
		<path class="st0" d="M114.7,97.3c0,0.7,0.1,0.9,0.3,1.3h-1.6c0.2-0.4,0.3-0.6,0.3-1.3V91c0-0.7,0-0.9-0.3-1.3h1.7
			c1.1,0,1.8,0.2,2.4,0.6c0.6,0.4,0.9,1,0.9,1.7c0,1.1-0.8,2-2.2,2.5l0.2,0.3c1.2,1.5,2.1,2.7,2.8,3.4c0.1,0.1,0.1,0.1,0.2,0.2
			c-0.3,0.1-0.5,0.2-0.6,0.2c-0.4,0-0.9-0.5-1.9-1.6l-2.3-2.5V97.3z M117.3,92.1c0-0.8-0.5-1.4-1.3-1.6c-0.4-0.1-0.6-0.1-1.2-0.1
			h-0.1V94C116.2,94,117.3,93.2,117.3,92.1"/>
		<path class="st0" d="M122.2,98.5l-2.6-7.2c-0.3-0.8-0.5-1.3-0.8-1.7h1.6c0,0.1,0,0.2,0,0.3c0,0.3,0.1,0.7,0.3,1.3l2,5.7l2-5.6
			c0.2-0.5,0.3-0.9,0.3-1.2c0-0.2,0-0.3-0.1-0.5h1.5c-0.3,0.4-0.5,0.9-0.8,1.8l-2.6,7.1H122.2z"/>
		<path class="st0" d="M127.4,98.5c0.2-0.4,0.3-0.6,0.3-1.3V91c0-0.7-0.1-0.9-0.3-1.3h1.6c-0.2,0.4-0.3,0.6-0.3,1.3v6.3
			c0,0.7,0,0.9,0.3,1.3H127.4z"/>
		<path class="st0" d="M136.8,90.9c-0.7-0.4-1.3-0.6-2.2-0.6c-2.1,0-3.4,1.5-3.4,3.8c0,2.3,1.4,3.8,3.5,3.8c0.8,0,1.5-0.2,2.2-0.7
			l0,1.2c-0.7,0.2-1.5,0.3-2.3,0.3c-2.7,0-4.6-1.8-4.6-4.5c0-2.7,2.1-4.8,4.9-4.8c0.7,0,1.3,0.1,1.9,0.3L136.8,90.9z"/>
		<path class="st0" d="M142.6,93.6l-0.6,1.1c-0.5-0.3-0.9-0.4-1.7-0.4h-0.8v3.6h1.2c1,0,1.5-0.1,2.5-0.4l-0.5,1.1h-4.5
			c0.2-0.4,0.3-0.6,0.3-1.3V91c0-0.7,0-0.9-0.3-1.3h4.9l-0.6,1.1c-0.4-0.3-0.9-0.3-1.8-0.3h-1.2v3.2H142.6z"/>
		<path class="st0" d="M148.4,90.8c-0.6-0.4-1.1-0.6-1.7-0.6c-0.9,0-1.4,0.5-1.4,1.3c0,0.4,0.1,0.7,0.3,1c0.3,0.3,0.5,0.5,1.3,1
			c0.8,0.5,1,0.7,1.3,0.9c0.4,0.4,0.6,1,0.6,1.6c0,1.5-1.3,2.6-2.9,2.6c-0.6,0-1.1-0.1-1.7-0.3v-1.3c0.7,0.6,1.2,0.9,1.9,0.9
			c0.9,0,1.7-0.7,1.7-1.7c0-0.8-0.2-1-1.5-1.9c-0.7-0.5-1.1-0.7-1.4-1.1c-0.4-0.4-0.6-0.9-0.6-1.5c0-1.4,1.2-2.3,2.8-2.3
			c0.5,0,0.9,0.1,1.4,0.2V90.8z"/>
		<path class="st0" d="M93.3,46c-3.5-2-7-2.8-11.2-2.8c-10.4,0-17,7.1-17,18.1c0,10.7,7,18.2,17.3,18.2c4.1,0,7.4-1,11.3-3.5v5.6
			c-3.8,1-7.6,1.6-11.5,1.6c-13.7,0-23.1-8.7-23.1-21.2c0-12.9,10.7-22.7,24.8-22.7c3.5,0,6.5,0.6,9.4,1.6V46z"/>
		<path class="st0" d="M103.3,60.9V43.7h0.5c3,0,4.1,0.1,6,0.5c4,0.8,6.6,3.7,6.6,7.5C116.4,57.1,111.1,60.8,103.3,60.9 M119.1,74
			c-4.8-4.9-8.2-11-8.2-11c7.3-2.4,11.3-6.6,11.3-11.8c0-3.2-1.6-6.1-4.6-8.1c-3.1-2-6.5-2.8-12.4-2.8h-8.8c1.1,1.8,1.3,2.9,1.3,6.1
			v29.9c0,3.3-0.2,4.3-1.3,6.1h8.1c-1.1-1.9-1.3-2.9-1.3-6.1V63c0,0,8,10.1,9.8,12.1c3.3,3.5,9.7,9.5,20.7,8.8
			c8.3-0.6,14.8-5.4,14.8-12.4c0-2.8-1.1-5.5-3.2-7.5c-1.3-1.3-2.6-2.2-6.5-4.4c-3.7-2.2-5.1-3.3-6.4-4.8c-1.1-1.2-1.7-2.9-1.7-4.6
			c0-3.9,2.8-6.3,7.3-6.3c3,0,5.5,0.8,8.5,2.6v-5.6c-2.2-0.6-4.5-0.9-6.9-0.9c-8.4,0-14.2,4.6-14.2,11c0,2.5,1.1,5,3.2,7
			c1.6,1.6,3.3,2.9,6.9,5.1c6.3,3.7,7.7,5,7.8,8.9c0,4-3.7,8.1-8.4,8.5C128.9,81.1,124,79,119.1,74"/>
		<path class="st0" d="M49.1,2.3c-0.2,0.2-0.8,0.4-1.6,0.8c-2.1,1.1-4.7,2.8-9.2,6.5c-9.7,8.1-23,21.9-25,41
			c-2,18.8,3.5,25.8,9.1,27.1c5.5,1.3,17.3-3.7,23.1-14.8C51.7,50.8,49,35.5,47.9,31c-0.9-3.6-1.6-5.9-1.8-9.4
			c-0.3-5.2,2.9-12.3,4.7-14.8c1-1.4,2.8-1.9,3.7,0.7c3.8,11.5,6.3,36.3-5.2,55.3C37.9,81.7,23.8,85.7,14.7,83.6
			c-7.8-1.8-15-9.9-13.2-25.9C3.3,41.8,11,31,16.4,24.8C30.8,8.2,46.8,2.2,48.9,2C49.2,1.9,49.3,2.1,49.1,2.3"/>
		<path class="st0" d="M30.8,58.7c-5.1,1.1-7.8,3.9-8.8,5.1c-2.4,2.8-3.9,7.7-0.8,10.3c2.9,2.5,6.7,0.5,9.1-1.3
			c2-1.5,4.8-4.8,7.1-9.1c1.9-3.6,3.2-6.5,3.6-8.2c0.2-0.7,0.2-1.2,0.1-1.6c-0.2-0.6-0.7-0.6-1.3,0c-0.2,0.2-0.3,0.4-0.5,0.7
			C38,56.1,35.8,57.6,30.8,58.7"/>
		<path class="st0" d="M148.9,82c0,0.5-0.2,1-0.5,1.3c-0.4,0.4-0.8,0.5-1.3,0.5c-0.5,0-1-0.2-1.3-0.5c-0.4-0.4-0.5-0.8-0.5-1.3
			c0-0.5,0.2-1,0.5-1.3c0.4-0.4,0.8-0.5,1.3-0.5c0.5,0,1,0.2,1.3,0.5C148.8,81,148.9,81.4,148.9,82 M148.5,82c0-0.4-0.1-0.7-0.4-1
			c-0.3-0.3-0.6-0.4-1-0.4c-0.4,0-0.7,0.1-1,0.4c-0.3,0.3-0.4,0.6-0.4,1s0.1,0.7,0.4,1c0.3,0.3,0.6,0.4,1,0.4c0.4,0,0.7-0.1,1-0.4
			C148.4,82.7,148.5,82.3,148.5,82 M147.3,82.9v-0.4c0-0.1,0-0.3-0.1-0.4c-0.1-0.1-0.1-0.2-0.2-0.2h-0.1v0.9h-0.2h-0.2v-2h0.8
			c0.2,0,0.4,0,0.5,0.1c0.1,0.1,0.2,0.2,0.2,0.3v0.1v0.1c0,0.1,0,0.2-0.1,0.3c-0.1,0.1-0.1,0.1-0.2,0.1c0.1,0.1,0.2,0.2,0.3,0.3
			c0.1,0.1,0.1,0.2,0.1,0.4v0.3H147.3z M147.4,81.6L147.4,81.6L147.4,81.6c0-0.1,0-0.2-0.1-0.2c0,0-0.1-0.1-0.1-0.1H147h-0.2v0.5
			h0.3c0.1,0,0.1,0,0.1-0.1C147.3,81.7,147.4,81.6,147.4,81.6"/>
	</g>
	<g>
		<g>
			<path class="st1" d="M165.9,47v5.8c0,2.3,0.1,2.3,2.3,2.4v0.8c-1.3,0-2.6-0.1-3.9-0.1c-1.1,0-2.2,0.1-3.3,0.1v-0.8
				c1.8-0.1,1.7-0.6,1.7-2.2v-6h-1.6v-1h1.6v-1.7c0-1,0.1-2.1,0.7-3c0.9-1.3,2.6-1.6,4.1-1.6c1.1,0,3,0.3,3,1.8
				c0,0.7-0.5,1.3-1.3,1.3c-1.6,0-1.2-2.2-2.4-2.2c-0.8,0-1.1,0.9-1.1,1.5v3.8h3v1H165.9z"/>
			<path class="st1" d="M172.5,50.4c0,2.1,0.6,4.5,3.1,4.5c1.4,0,2-0.7,2.9-1.6l0.7,0.6c-1,1.6-2.7,2.3-4.5,2.3
				c-3.1,0-5.5-2-5.7-5.2c-0.1-3.3,2.4-5.6,5.6-5.6c2.5,0,4.8,1.7,4.8,4.4c0,0.7-0.4,0.6-1,0.6H172.5z M175.7,49.4
				c0.5,0,0.7-0.2,0.7-0.7c0-1.1-0.7-2.4-1.9-2.4c-1.5,0-1.9,1.8-2,3.1H175.7z"/>
			<path class="st1" d="M180.2,54.1c0-1.1,0.9-1.9,1.9-1.9c1,0,1.9,0.8,1.9,1.9c0,1.1-0.8,2-1.9,2C181,56.1,180.2,55.2,180.2,54.1z"
				/>
		</g>
		<g>
			<path class="st2" d="M172.7,76.3c-0.5,0.9-1.9,1.5-2.8,1.5c-1.1,0-1.8-0.5-2.1-1.6c-0.9,0.9-2.1,1.6-3.3,1.6
				c-1.5,0-2.7-1-2.7-2.6c0-2.4,2.7-3.2,4.8-4c0.7-0.3,1.3-0.3,1.3-1.2c0-1-0.1-2.1-1.4-2.1c-0.9,0-1.2,0.4-1.5,1.2
				c-0.3,0.8-0.6,1.5-1.5,1.5c-0.7,0-1.3-0.5-1.3-1.3c0-2,3.1-2.4,4.6-2.4c2,0,4.2,0.5,4.2,2.9v4.8c0,0.4,0,1.2,0.5,1.2
				c0.4,0,0.5-0.1,0.8-0.3L172.7,76.3z M167.8,71.7c-1.2,0.5-2.8,1.2-2.8,2.7c0,0.8,0.3,1.6,1.2,1.6c0.7,0,1.6-0.7,1.6-1.5V71.7z"/>
			<path class="st2" d="M181.6,75.4c-1.1,1.6-2.7,2.4-4.6,2.4c-3.1,0-5.3-2.1-5.3-5.2c0-3.4,2.7-5.5,5.9-5.5c1.3,0,3.8,0.6,3.8,2.3
				c0,0.7-0.5,1.3-1.2,1.3c-1.9,0-1.2-2.6-2.9-2.6c-1.9,0-2.1,2.8-2.1,4.2c0,1.9,0.4,4.3,2.9,4.3c1.3,0,2-0.8,2.8-1.7L181.6,75.4z"
				/>
			<path class="st2" d="M191.1,75.4c-1.1,1.6-2.7,2.4-4.6,2.4c-3.1,0-5.3-2.1-5.3-5.2c0-3.4,2.7-5.5,5.9-5.5c1.3,0,3.8,0.6,3.8,2.3
				c0,0.7-0.5,1.3-1.2,1.3c-1.9,0-1.2-2.6-2.9-2.6c-1.9,0-2.1,2.8-2.1,4.2c0,1.9,0.5,4.3,2.9,4.3c1.3,0,2-0.8,2.8-1.7L191.1,75.4z"
				/>
			<path class="st2" d="M195.8,74.5c0,0.4,0,1.5,0.2,1.8c0.3,0.4,0.9,0.4,1.3,0.4v0.8c-1,0-1.9-0.1-2.9-0.1c-1.1,0-2.1,0.1-3.2,0.1
				v-0.8c0.4,0,1-0.1,1.3-0.4c0.2-0.3,0.2-1.4,0.2-1.8v-4.1c0-1.4-0.3-1.9-1.5-1.9v-0.8c1.5-0.1,3.1-0.3,4.6-0.7V74.5z M192.1,63.2
				c0-1,0.8-1.8,1.8-1.8c1,0,1.8,0.8,1.8,1.8c0,1-0.8,1.8-1.8,1.8C193,64.9,192.1,64.1,192.1,63.2z"/>
			<path class="st2" d="M208.5,72.3c0,3.2-2.6,5.4-5.6,5.4c-3.1,0-5.9-2.1-5.9-5.4c0-3.1,2.8-5.3,5.8-5.3
				C205.9,67,208.5,69.2,208.5,72.3z M203,62.7c0.4-0.4,0.9-1.1,1.5-1.1c0.5,0,0.9,0.4,0.9,0.9c0,0.4-0.6,0.8-0.9,1l-0.6,0.4
				l-2.8,1.7h-0.8L203,62.7z M200.5,72.3c0,1.8,0.2,4.5,2.5,4.5c2,0,2.1-3,2.1-4.4c0-1.6-0.1-4.5-2.2-4.5
				C200.7,67.9,200.5,70.7,200.5,72.3z"/>
			<path class="st2" d="M212.8,74.5c0,0.4,0,1.5,0.2,1.8c0.3,0.4,0.9,0.4,1.3,0.4v0.8c-1,0-2-0.1-3-0.1c-1,0-2,0.1-3,0.1v-0.8
				c0.4,0,1-0.1,1.3-0.4c0.2-0.3,0.2-1.4,0.2-1.8v-3.4c0-1.3,0-2.4-1.5-2.4v-0.8c1.5-0.1,2.9-0.4,4.4-0.9l0.3,2.1
				c0.9-1.2,2-2.1,3.5-2.1c1,0,2.2,0.4,2.8,1.2c0.6,0.8,0.6,2.2,0.6,3.2v3.1c0,0.4,0,1.5,0.2,1.8c0.3,0.4,0.9,0.4,1.3,0.4v0.8
				c-0.9,0-1.9-0.1-2.8-0.1c-1.1,0-2.2,0.1-3.3,0.1v-0.8c0.4,0,1,0,1.3-0.4c0.2-0.3,0.2-1.4,0.2-1.8v-3c0-1.1,0.1-3-1.5-3
				c-0.9,0-1.6,0.7-1.9,1.5c-0.3,0.7-0.3,1.7-0.3,2.5V74.5z"/>
			<path class="st2" d="M221.3,75.7c0-1.1,0.9-1.9,1.9-1.9c1,0,1.9,0.8,1.9,1.9c0,1.1-0.8,2-1.9,2C222.2,77.6,221.3,76.7,221.3,75.7
				z"/>
		</g>
		<g>
			<path class="st3" d="M227.7,97.4c-0.5,0.9-1.9,1.5-2.9,1.5c-1.1,0-1.8-0.5-2.1-1.6c-0.9,0.9-2.1,1.6-3.4,1.6
				c-1.5,0-2.7-1-2.7-2.6c0-2.4,2.7-3.2,4.8-4c0.7-0.3,1.3-0.3,1.3-1.2c0-1-0.1-2.1-1.4-2.1c-0.9,0-1.2,0.4-1.5,1.2
				c-0.3,0.8-0.6,1.5-1.5,1.5c-0.7,0-1.3-0.5-1.3-1.3c0-2,3.1-2.4,4.6-2.4c2,0,4.2,0.5,4.2,2.9v4.8c0,0.4,0,1.2,0.5,1.2
				c0.4,0,0.5-0.1,0.8-0.3L227.7,97.4z M222.8,92.8c-1.2,0.5-2.8,1.2-2.8,2.7c0,0.8,0.3,1.6,1.2,1.6c0.7,0,1.6-0.7,1.6-1.5V92.8z"/>
			<path class="st3" d="M239.8,98l-4.3,0.9l-0.2-2.1c-0.9,1.3-2,2.1-3.6,2.1c-3,0-4.8-2.5-4.8-5.3c0-2.9,2-5.5,5-5.5
				c1.3,0,2.4,0.8,3.2,1.6v-3.7c0-1.3,0.1-1.9-1.5-2.1v-0.8l4.6-0.7v13.1c0,1.2,0.5,1.6,1.7,1.6V98z M230.2,93.4
				c0,1.6,0.3,3.9,2.4,3.9c2.3,0,2.3-2.3,2.3-4c0-1.7-0.1-3.6-2.2-3.6C230.7,89.7,230.2,91.7,230.2,93.4z"/>
			<path class="st3" d="M250.9,93.5c0,3.2-2.6,5.4-5.6,5.4c-3.1,0-5.9-2.1-5.9-5.4c0-3.1,2.9-5.3,5.8-5.3
				C248.2,88.1,250.9,90.3,250.9,93.5z M242.8,93.4c0,1.8,0.2,4.5,2.5,4.5c2,0,2.1-3,2.1-4.4c0-1.6-0.1-4.5-2.2-4.5
				C243.1,89.1,242.8,91.8,242.8,93.4z"/>
			<path class="st3" d="M161.4,89l4.4-0.9l0.2,2.3h0c0.6-1.1,1.7-2.3,3-2.3c1,0,1.8,0.8,1.8,1.8c0,0.8-0.6,1.2-1.4,1.2
				c-1.3,0-1.1-1-1.9-1c-1.3,0-1.5,2.3-1.5,3.1v2.4c0,1.7,0,2.2,1.7,2.2v0.8c-1.1,0-2.2-0.1-3.3-0.1c-1,0-2,0.1-3,0.1v-0.8
				c0.4,0,1-0.1,1.3-0.4c0.2-0.3,0.2-1.4,0.2-1.8v-3.9c0-1.5-0.4-1.9-1.6-2V89z"/>
			<path class="st3" d="M173.8,93.1c0,2.1,0.6,4.5,3.1,4.5c1.4,0,2-0.7,2.9-1.6l0.7,0.6c-1,1.6-2.7,2.3-4.5,2.3
				c-3.1,0-5.5-2-5.7-5.2c-0.1-3.3,2.4-5.6,5.6-5.6c2.5,0,4.8,1.7,4.8,4.4c0,0.7-0.4,0.6-1,0.6H173.8z M177,92.1
				c0.5,0,0.7-0.2,0.7-0.7c0-1.1-0.7-2.4-1.9-2.4c-1.4,0-1.9,1.8-1.9,3.1H177z"/>
			<path class="st3" d="M182,98.6h-1l-0.1-3.2h1c0.6,1.3,1.6,2.6,3.2,2.6c0.9,0,1.9-0.5,1.9-1.5c0-1.1-1.4-1.4-2.2-1.6
				c-1.9-0.6-3.6-1.3-3.6-3.6c0-2.2,1.8-3.2,3.8-3.2c1.1,0,1.9,0.3,2.8,0.8l0.4-0.8h1v3.1h-1c-0.5-1.1-1.4-2.2-2.8-2.2
				c-0.7,0-1.7,0.4-1.7,1.2c0,1,1.1,1.2,1.9,1.5c1.9,0.6,4,1.3,4,3.7c0,2.4-2,3.4-4.1,3.4c-1,0-2.3-0.3-3.1-1L182,98.6z"/>
			<path class="st3" d="M202.5,98.6h-4l-0.2-2h0c-1,1.6-2.2,2.3-4.1,2.3c-2.4,0-3-1.5-3-3.5v-3.9c0-0.4,0-1.5-0.2-1.8
				c-0.3-0.3-0.9-0.3-1.3-0.4v-0.8l4.6-0.3v6.5c0,1.2,0.1,2.5,1.6,2.5c1.8,0,2.2-1.8,2.2-3.3v-2.5c0-0.4,0-1.5-0.2-1.8
				c-0.2-0.4-0.9-0.3-1.3-0.4v-0.8l4.6-0.3v6.8c0,0.5,0.1,1.2,0.2,1.6c0.1,0.3,0.5,1.1,1.1,1.1V98.6z"/>
			<path class="st3" d="M204.4,86c0-1.3,0-1.9-1.5-2v-0.8l4.6-0.7v13.1c0,1.5-0.1,2.1,1.5,2.2v0.8c-1,0-2-0.1-3-0.1
				c-1.1,0-2.2,0.1-3.4,0.1v-0.8c1.8,0,1.7-0.5,1.7-2.2V86z"/>
			<path class="st3" d="M213.1,89.5v6c0,0.9,0,2,0.9,2c0.6,0,1.1-0.5,1.4-0.9l0.8,0.5c-0.8,1.2-1.9,1.8-3.4,1.8
				c-2.3,0-2.8-1.4-2.8-3.4v-6h-1.3v-0.7c1.7-0.5,2.9-1.7,3.4-3.5h1v3.2h2.4v1H213.1z"/>
			<path class="st3" d="M252.2,98.6h-1l-0.1-3.2h1c0.6,1.3,1.6,2.6,3.2,2.6c0.9,0,1.9-0.5,1.9-1.5c0-1.1-1.4-1.4-2.2-1.6
				c-1.9-0.6-3.6-1.3-3.6-3.6c0-2.2,1.8-3.2,3.8-3.2c1.1,0,1.9,0.3,2.8,0.8l0.4-0.8h1v3.1h-1c-0.5-1.1-1.4-2.2-2.8-2.2
				c-0.7,0-1.7,0.4-1.7,1.2c0,1,1.1,1.2,1.9,1.5c1.9,0.6,4,1.3,4,3.7c0,2.4-2,3.4-4.1,3.4c-1,0-2.3-0.3-3.1-1L252.2,98.6z"/>
			<path class="st3" d="M260.2,96.8c0-1.1,0.9-1.9,1.9-1.9c1,0,1.9,0.8,1.9,1.9c0,1.1-0.8,2-1.9,2C261.1,98.8,260.2,97.9,260.2,96.8
				z"/>
		</g>
	</g>
</g>
</svg>
